<svg preserveAspectRatio="none" width="100%" height="100%" overflow="visible" style="display: block;" viewBox="0 0 44.4987 44.5046" fill="none" xmlns="http://www.w3.org/2000/svg">
<g id="Group">
<path id="Vector" d="M14.7771 37.1253C13.3478 38.6014 12.0501 39.9393 10.739 41.295C7.58155 39.3707 5.15553 36.9179 3.21337 33.7962C4.56909 32.4918 5.91366 31.1963 7.42769 29.738C6.92822 29.7001 6.69186 29.6666 6.45327 29.6644C5.11539 29.6599 3.77082 29.5841 2.44186 29.6889C1.42953 29.7692 1.08837 29.3634 0.84309 28.4492C-0.320866 24.13 -0.289646 19.8488 0.999179 15.5654C1.17087 14.9968 1.41615 14.8072 2.00705 14.8228C3.71285 14.863 5.41864 14.8384 7.20471 14.8384C5.79325 13.476 4.44645 12.1761 3.11303 10.8872C5.12654 7.58936 7.57486 5.15665 10.7122 3.21895C12.0099 4.59028 13.2943 5.946 14.5787 7.30172C14.6634 7.26381 14.7459 7.22591 14.8306 7.188C14.8306 6.20912 14.8306 5.228 14.8306 4.24912C14.8306 3.68052 14.8217 3.10969 14.8329 2.54109C14.8596 1.07834 14.5363 1.31247 16.1284 0.85982C20.3739 -0.339813 24.6106 -0.268462 28.8405 0.975767C29.4537 1.15638 29.7012 1.41727 29.6789 2.09513C29.6209 3.76748 29.6588 5.44429 29.6588 7.21699C31.0279 5.80106 32.3257 4.45426 33.6167 3.11861C36.9124 5.13658 39.3451 7.58268 41.3051 10.7445C39.9449 12.0311 38.5914 13.311 37.0707 14.747C37.5657 14.7916 37.8021 14.8318 38.0384 14.834C39.4053 14.8407 40.7744 14.8964 42.1346 14.8139C42.9997 14.7604 43.3654 15.0347 43.6018 15.8798C44.8215 20.2479 44.8081 24.5849 43.4947 28.9263C43.3297 29.4749 43.1045 29.6956 42.498 29.68C40.7967 29.6332 39.0931 29.6644 37.258 29.6644C38.7051 31.0424 40.0586 32.3335 41.3898 33.6022C39.3607 36.9179 36.9168 39.3573 33.7594 41.295C32.4572 39.9438 31.1639 38.5992 29.8684 37.2546C29.7993 37.2814 29.7279 37.3082 29.6588 37.3349C29.6588 38.7107 29.6588 40.0865 29.6588 41.4623C29.6588 43.3286 29.661 43.3375 27.8571 43.7924C23.7298 44.836 19.6336 44.7289 15.5576 43.4959C14.9912 43.3242 14.7972 43.0655 14.8128 42.4791C14.8529 41.0297 14.8284 39.5759 14.824 38.1243C14.8284 37.8567 14.8017 37.5869 14.7771 37.1253ZM36.8343 29.6778C36.8923 29.5774 36.9525 29.4793 37.0105 29.379C34.5889 26.9953 32.1651 24.6117 29.6611 22.1455C32.0804 19.7329 34.4707 17.347 36.9904 14.8318C34.4863 14.8318 32.1161 14.8318 29.6187 14.8318C29.6187 12.3567 29.6187 10.002 29.6187 7.64511C29.5406 7.61166 29.4604 7.58044 29.3823 7.54699C27.0076 9.95072 24.6351 12.3544 22.1422 14.8764C19.7317 12.4347 17.3481 10.0221 14.8106 7.45558C14.8106 10.0198 14.8106 12.3879 14.8106 14.8407C12.3533 14.8407 10.0053 14.8407 7.47006 14.8407C10.0232 17.3581 12.4381 19.7396 14.9555 22.2213C12.4113 24.7388 9.99866 27.1269 7.42547 29.6755C10.0054 29.6755 12.3734 29.6755 14.8463 29.6755C14.8463 32.1462 14.8463 34.5142 14.8463 36.8823C14.9243 36.9246 15.0023 36.9648 15.0826 37.0071C17.4685 34.59 19.8544 32.1729 22.4231 29.573C24.8335 32.0057 27.2127 34.4094 29.6923 36.9135C29.6923 34.4518 29.6923 32.1016 29.6923 29.6778C32.1361 29.6778 34.4841 29.6778 36.8343 29.6778Z" fill="var(--fill-0, #A3D0FF)"/>
</g>
</svg>
